<?xml version="1.0" encoding="UTF-8"?>
<svg id="Layer_1" data-name="Layer 1" xmlns="http://www.w3.org/2000/svg" version="1.1" viewBox="0 0 50 50">
  <defs>
    <style>
      .cls-1 {
        fill: #131313;
        stroke-width: 0px;
      }
    </style>
  </defs>
  <path class="cls-1" d="M16,25.7h4.2v17.2c0,.3.3.6.6.6h7.1c.3,0,.6-.3.6-.6v-17.1h4.8c.3,0,.6-.2.6-.5l.7-6.3c0-.2,0-.3-.2-.5-.1-.1-.3-.2-.5-.2h-5.5v-4c0-1.2.6-1.8,1.9-1.8h3.6c.3,0,.6-.3.6-.6v-5.8c0-.3-.3-.6-.6-.6h-5s-.1,0-.2,0c-.9,0-3.9.2-6.2,2.4-2.6,2.4-2.3,5.3-2.2,5.8v4.6h-4.4c-.3,0-.6.3-.6.6v6.3c0,.3.3.6.6.6Z"/>
</svg>