<?xml version="1.0" encoding="UTF-8"?>
<svg id="Layer_1" data-name="Layer 1" xmlns="http://www.w3.org/2000/svg" version="1.1" viewBox="0 0 50 50">
  <defs>
    <style>
      .cls-1 {
        fill: #131313;
        stroke-width: 0px;
      }
    </style>
  </defs>
  <path class="cls-1" d="M25,13.3c3.8,0,4.2,0,5.7,0,1.4,0,2.1.3,2.6.5.7.3,1.1.6,1.6,1.1s.8,1,1.1,1.6c.2.5.4,1.3.5,2.6,0,1.5,0,1.9,0,5.7s0,4.2,0,5.7c0,1.4-.3,2.1-.5,2.6-.3.7-.6,1.1-1.1,1.6-.5.5-1,.8-1.6,1.1-.5.2-1.3.4-2.6.5-1.5,0-1.9,0-5.7,0s-4.2,0-5.7,0c-1.4,0-2.1-.3-2.6-.5-.7-.3-1.1-.6-1.6-1.1-.5-.5-.8-1-1.1-1.6-.2-.5-.4-1.3-.5-2.6,0-1.5,0-1.9,0-5.7s0-4.2,0-5.7c0-1.4.3-2.1.5-2.6.3-.7.6-1.1,1.1-1.6.5-.5,1-.8,1.6-1.1.5-.2,1.3-.4,2.6-.5,1.5,0,1.9,0,5.7,0M25,10.8c-3.9,0-4.3,0-5.9,0-1.5,0-2.5.3-3.5.7-.9.4-1.7.8-2.5,1.6-.8.8-1.3,1.6-1.6,2.5-.4.9-.6,1.9-.7,3.5,0,1.5,0,2,0,5.9s0,4.3,0,5.9c0,1.5.3,2.5.7,3.5.4.9.8,1.7,1.6,2.5.8.8,1.6,1.3,2.5,1.6.9.4,1.9.6,3.5.7,1.5,0,2,0,5.9,0s4.3,0,5.9,0c1.5,0,2.5-.3,3.5-.7.9-.4,1.7-.8,2.5-1.6.8-.8,1.3-1.6,1.6-2.5.4-.9.6-1.9.7-3.5,0-1.5,0-2,0-5.9s0-4.3,0-5.9c0-1.5-.3-2.5-.7-3.5-.4-.9-.8-1.7-1.6-2.5-.8-.8-1.6-1.3-2.5-1.6-.9-.4-1.9-.6-3.5-.7-1.5,0-2,0-5.9,0ZM25,17.7c-4,0-7.3,3.3-7.3,7.3s3.3,7.3,7.3,7.3,7.3-3.3,7.3-7.3-3.3-7.3-7.3-7.3ZM25,29.7c-2.6,0-4.7-2.1-4.7-4.7s2.1-4.7,4.7-4.7,4.7,2.1,4.7,4.7-2.1,4.7-4.7,4.7ZM34.3,17.4c0,.9-.8,1.7-1.7,1.7s-1.7-.8-1.7-1.7.8-1.7,1.7-1.7,1.7.8,1.7,1.7Z"/>
</svg>