<?xml version="1.0" encoding="UTF-8"?>
<svg id="Layer_1" data-name="Layer 1" xmlns="http://www.w3.org/2000/svg" version="1.1" viewBox="0 0 50 50">
  <defs>
    <style>
      .cls-1 {
        fill: #131313;
        stroke-width: 0px;
      }
    </style>
  </defs>
  <path class="cls-1" d="M37.5,18.6c0,.3,0,.6,0,.8,0,8.5-6.5,18.4-18.4,18.4h0c-3.5,0-6.9-1-9.9-2.9.5,0,1,0,1.5,0,2.9,0,5.7-1,8-2.8-2.8,0-5.2-1.9-6-4.5,1,.2,2,.1,2.9-.1-3-.6-5.2-3.3-5.2-6.3h0c.9.4,1.9.7,2.9.7-2.8-1.9-3.7-5.7-2-8.6,3.3,4,8.1,6.5,13.3,6.7-.5-2.2.2-4.6,1.9-6.2,2.6-2.4,6.7-2.3,9.1.3,1.4-.3,2.8-.8,4.1-1.6-.5,1.5-1.5,2.8-2.8,3.6,1.3-.2,2.5-.5,3.7-1-.9,1.3-2,2.4-3.2,3.3h0Z"/>
</svg>